
<svg width="81" height="24" viewBox="0 0 81 24" fill="none" xmlns="http://www.w3.org/2000/svg">
  <g clip-path="url(#clip0_136_1462)">
    <path d="M68.5818 2.32208e-06H12.4707C9.30211 -0.00194905 6.26106 1.22606 4.01038 3.4164C2.90092 4.49626 2.0201 5.78109 1.4187 7.19685C0.817298 8.61257 0.507225 10.1312 0.506348 11.6652V12.3354C0.507305 13.8693 0.817424 15.3878 1.41881 16.8034C2.02021 18.2191 2.90099 19.5038 4.01038 20.5836C6.26106 22.7739 9.30211 24.0019 12.4707 24H68.5818C71.7507 24.0019 74.7917 22.7739 77.0422 20.5836C78.1518 19.5036 79.0323 18.2187 79.6335 16.803C80.2347 15.3874 80.5455 13.8688 80.5462 12.3348V11.6652C80.5455 10.1313 80.2354 8.61278 79.6335 7.19719C79.0323 5.78152 78.1518 4.49678 77.0422 3.417C74.7917 1.2266 71.7507 -0.0015938 68.5818 2.32208e-06Z" fill="#FD4100"/>
    <path d="M57.634 12.261C57.6315 13.4487 57.3897 14.6243 56.9228 15.72C56.4559 16.8157 55.7729 17.81 54.9134 18.6455C53.1697 20.3406 50.8152 21.2913 48.3616 21.2909H12.9657C10.5112 21.2923 8.15547 20.3423 6.41038 18.6474C5.54962 17.8119 4.86557 16.8175 4.39758 15.7215C3.92961 14.6255 3.68693 13.4495 3.68353 12.261V11.7383C3.68677 10.5501 3.9292 9.37419 4.39686 8.27828C4.86452 7.18237 5.54819 6.18808 6.40855 5.35255C8.15407 3.65713 10.5106 2.70705 12.9657 2.70896H48.3605C50.8138 2.70846 53.1684 3.65893 54.9121 5.35376C55.772 6.18924 56.4551 7.18347 56.9222 8.27917C57.3894 9.37487 57.6313 10.5505 57.634 11.7383V12.261Z" fill="white"/>
    <path d="M62.6545 13.7856C62.6489 14.0565 62.5363 14.3147 62.3404 14.5056C62.1436 14.698 61.8788 14.8085 61.6012 14.814C61.4574 14.8225 61.3135 14.8021 61.178 14.7542C61.0425 14.7064 60.9183 14.6321 60.813 14.5356C60.7083 14.4396 60.6248 14.3235 60.5677 14.1945C60.5106 14.0654 60.4811 13.9263 60.4811 13.7856C60.4811 13.645 60.5106 13.5058 60.5677 13.3768C60.6248 13.2477 60.7083 13.1316 60.813 13.0356C60.9183 12.9392 61.0425 12.8648 61.178 12.817C61.3134 12.7691 61.4574 12.7487 61.6012 12.7572C61.8785 12.762 62.1433 12.8715 62.3404 13.0632C62.5372 13.2545 62.6499 13.5138 62.6545 13.7856Z" fill="white"/>
    <path d="M68.8421 9.05994C68.3624 9.16129 67.8719 9.20579 67.3813 9.19255C67.7245 9.28773 68.0254 9.4931 68.2358 9.77589C68.4462 10.0586 68.5541 10.4025 68.5422 10.7526C68.5422 11.9123 67.5682 12.759 65.9711 12.759C65.734 12.7651 65.497 12.7429 65.2654 12.6929C65.2015 12.7259 65.1479 12.7753 65.1102 12.8358C65.0721 12.8958 65.0511 12.9648 65.0491 13.0355C65.0491 13.2198 65.1322 13.4039 65.7249 13.4039H66.6768C68.112 13.4039 69.0328 14.1401 69.0328 15.1439C69.0328 16.3847 67.9 17.1353 65.7823 17.1353C63.6646 17.1353 62.9962 16.5425 62.8599 15.5526C62.8562 15.509 62.8618 15.4653 62.8762 15.4239C62.8906 15.3826 62.9136 15.3447 62.9437 15.3126C62.9747 15.2803 63.0121 15.2548 63.0536 15.2375C63.0951 15.2201 63.1399 15.2115 63.185 15.2123H64.2157C64.2861 15.212 64.3544 15.2358 64.4088 15.2796C64.4632 15.3235 64.5004 15.3845 64.5139 15.4523C64.5927 15.8201 64.9178 15.9527 65.8391 15.9527C66.9224 15.9527 67.1644 15.6617 67.1644 15.279C67.1644 14.8961 66.92 14.6825 66.2992 14.6825H65.4047C64.0532 14.6825 63.5167 14.1425 63.5167 13.4975C63.5336 13.2617 63.6093 13.0336 63.7372 12.8334C63.865 12.6331 64.0411 12.4668 64.2499 12.3491C63.9085 12.2076 63.6191 11.9674 63.4202 11.6603C63.2219 11.3544 63.124 10.9961 63.1397 10.6337C63.1397 9.27532 64.2499 8.4251 65.8471 8.4251C66.7445 8.47159 67.6367 8.26458 68.4181 7.82874C68.482 7.79911 68.5536 7.78986 68.6231 7.80227C68.6926 7.81461 68.7563 7.84801 68.8055 7.89772C68.8379 7.9307 68.8629 7.96993 68.8788 8.01292L69.0939 8.67292C69.1069 8.71427 69.1108 8.75781 69.1055 8.80074C69.1 8.84325 69.0854 8.88412 69.0627 8.92074C69.04 8.9579 69.0096 8.98999 68.9736 9.01495C68.9368 9.03985 68.8951 9.05706 68.8513 9.06535L68.8421 9.05994ZM64.9538 10.5948C64.9358 10.7246 64.947 10.8568 64.9867 10.9821C65.0265 11.1072 65.0937 11.2223 65.1837 11.3192C65.2737 11.4161 65.3841 11.4924 65.5075 11.5427C65.6308 11.593 65.7638 11.6162 65.8972 11.6105C66.4635 11.6105 66.8185 11.2427 66.8185 10.5689C66.8185 9.89514 66.5204 9.58972 65.8972 9.58972C65.7649 9.58608 65.6334 9.61029 65.5115 9.66069C65.3896 9.71109 65.28 9.78652 65.1902 9.8819C65.1008 9.97681 65.0333 10.0896 64.9925 10.2126C64.9516 10.3355 64.9384 10.4657 64.9538 10.5942V10.5948Z" fill="white"/>
    <path d="M74.9969 12.1476H71.1795C71.2891 13.2276 71.8331 13.5204 72.5879 13.5204C73.0215 13.5111 73.4433 13.3836 73.8071 13.1521C73.8748 13.1096 73.9558 13.0924 74.0354 13.1034C74.115 13.1144 74.1883 13.1529 74.2414 13.2121L74.6192 13.7275C74.645 13.7618 74.6639 13.801 74.6743 13.8427C74.6841 13.8843 74.6848 13.9275 74.6771 13.9696C74.6694 14.0117 74.6527 14.0518 74.6289 14.0875C74.6045 14.1231 74.5731 14.1535 74.5361 14.1769C73.9055 14.5991 73.1605 14.8249 72.3973 14.8249C70.3394 14.8249 69.3126 13.5289 69.3126 11.6593C69.3126 9.84843 70.3136 8.42702 72.1843 8.42702C73.9439 8.42702 75.0235 9.56105 75.0235 11.5009C75.0284 11.7168 75.0193 11.9328 74.9969 12.1476ZM73.2373 10.9993C73.2108 10.182 72.9691 9.61502 72.2367 9.61502C71.6138 9.61502 71.2626 9.98345 71.1795 11.0875H73.2373V10.9993Z" fill="white"/>
    <path d="M18.5489 10.4796V14.9671C18.5488 15.0085 18.5403 15.0496 18.524 15.0878C18.5077 15.126 18.4837 15.1607 18.4535 15.1897C18.4233 15.2188 18.3875 15.2419 18.3482 15.2574C18.3089 15.2729 18.2668 15.2807 18.2244 15.2803H16.8729C16.8305 15.2807 16.7884 15.2729 16.7491 15.2574C16.7098 15.2419 16.674 15.2188 16.6438 15.1897C16.6136 15.1607 16.5896 15.126 16.5733 15.0878C16.557 15.0496 16.5485 15.0085 16.5484 14.9671V10.8223C16.5484 10.1227 16.304 9.93909 15.9784 9.93909C15.5746 9.93909 15.2495 10.2559 14.9776 10.7971V14.9676C14.9738 15.0502 14.9381 15.1282 14.878 15.186C14.8176 15.2441 14.737 15.2777 14.6525 15.2803H13.276C13.1943 15.2765 13.1174 15.2416 13.0615 15.1831C13.0058 15.1247 12.9757 15.047 12.9778 14.9671V10.8223C12.9778 10.1227 12.7059 9.93909 12.3815 9.93909C11.974 9.93909 11.6483 10.2559 11.3507 10.7971V14.9676C11.3523 15.0071 11.3459 15.0464 11.332 15.0833C11.318 15.1203 11.2968 15.1541 11.2695 15.1831C11.2142 15.2416 11.1376 15.2765 11.0562 15.2803H9.67112C9.58663 15.2777 9.50611 15.2441 9.44564 15.186C9.38552 15.1282 9.34991 15.0502 9.34607 14.9676V9.02763C9.349 8.94446 9.3842 8.86546 9.44446 8.80683C9.50493 8.74786 9.58593 8.71358 9.67112 8.71083H10.832C10.9063 8.70974 10.9783 8.73607 11.0337 8.78468C11.089 8.83296 11.1235 8.90009 11.1302 8.97243L11.2395 9.50228C11.4563 9.19275 11.7475 8.94048 12.0873 8.76782C12.427 8.59508 12.8048 8.50731 13.1874 8.51225C13.5306 8.49641 13.8701 8.58734 14.1576 8.77207C14.4459 8.95556 14.667 9.22464 14.7888 9.54007C15.0101 9.21998 15.3086 8.95865 15.6578 8.77947C16.0069 8.60023 16.3959 8.50862 16.7898 8.51287C17.8468 8.51403 18.5489 9.25028 18.5489 10.4796Z" fill="#414042"/>
    <path d="M23.8008 15.2947C23.5967 16.0568 23.1455 16.733 22.5155 17.2211C21.8854 17.7092 21.1107 17.9826 20.3084 18.0001C20.2264 18.0076 20.1446 17.9845 20.0793 17.9353C20.014 17.8862 19.9702 17.8146 19.9571 17.7349L19.8477 16.9579C19.8348 16.8808 19.8529 16.8018 19.8984 16.7377C19.9448 16.6744 20.0145 16.6314 20.0927 16.6177C20.4389 16.6009 20.7754 16.5003 21.0725 16.3249C21.3696 16.1496 21.618 15.9049 21.7955 15.6127C21.6616 15.5481 21.5423 15.4577 21.4448 15.3469C21.3476 15.2363 21.2742 15.1075 21.2292 14.9683L19.3418 9.12007C19.3248 9.07372 19.3195 9.024 19.3264 8.97518C19.3333 8.92636 19.3522 8.87993 19.3815 8.83989C19.4109 8.7997 19.4498 8.76706 19.4948 8.74471C19.5398 8.72236 19.5895 8.71097 19.64 8.71152H21.0746C21.1492 8.71296 21.2214 8.73847 21.2799 8.78407C21.3386 8.82953 21.3803 8.89282 21.3984 8.96407L22.5312 14.0293L23.8032 8.94967C23.8192 8.8837 23.857 8.8248 23.9108 8.78229C23.965 8.7397 24.032 8.71584 24.1014 8.71447H25.4792C25.5319 8.70912 25.585 8.71701 25.6337 8.73751C25.6824 8.75794 25.7249 8.79031 25.7572 8.83152C25.7894 8.87232 25.8103 8.9206 25.8179 8.97168C25.8255 9.02277 25.8195 9.07495 25.8006 9.12309L23.8008 15.2947Z" fill="#414042"/>
    <path d="M32.2995 14.4258L32.0275 15.2172C32.0029 15.2865 31.9545 15.3452 31.8907 15.3834C31.8267 15.4217 31.7512 15.4371 31.6769 15.4272C31.387 15.4106 31.1076 15.3153 30.8697 15.1518C30.6326 14.989 30.4466 14.7644 30.3327 14.5032C30.1122 14.8285 29.8085 15.0913 29.4521 15.265C29.0956 15.4387 28.6989 15.5174 28.3018 15.4932C28.0159 15.5131 27.729 15.4742 27.4593 15.3789C27.1896 15.2837 26.9432 15.1342 26.7358 14.94C26.529 14.7468 26.3662 14.5128 26.2578 14.2535C26.1495 13.9942 26.0981 13.7154 26.1071 13.4352C26.1071 12.0108 27.2173 11.2266 29.2745 11.2266H29.9563V10.9356C29.9563 10.1586 29.6582 9.92339 28.8236 9.92339C28.3264 9.94224 27.8345 10.0304 27.3626 10.185C27.2795 10.213 27.1886 10.2084 27.1088 10.172C27.0291 10.1357 26.9668 10.0705 26.9349 9.99004L26.6906 9.27964C26.6623 9.2025 26.6663 9.11754 26.7016 9.0432C26.7371 8.9686 26.8009 8.91065 26.8794 8.88179C27.6059 8.65166 28.3628 8.52775 29.126 8.51404C31.0781 8.51404 31.9158 9.30542 31.9158 10.8366V13.3836C31.8969 13.5109 31.9093 13.6408 31.9518 13.7624C31.9942 13.8841 32.0657 13.9941 32.1601 14.0832C32.2177 14.1182 32.2621 14.1706 32.2866 14.2326C32.3113 14.2943 32.3145 14.3622 32.2958 14.4258H32.2995ZM29.9563 13.461V12.3H29.4578C28.5413 12.3 28.1062 12.6168 28.1062 13.26C28.0918 13.367 28.1016 13.4759 28.135 13.5788C28.1684 13.6817 28.2245 13.7761 28.2993 13.8552C28.3744 13.9347 28.4663 13.9971 28.5686 14.038C28.6709 14.079 28.7811 14.0975 28.8914 14.0922C29.1113 14.0923 29.327 14.0331 29.5151 13.9212C29.7024 13.8104 29.8551 13.6513 29.9563 13.461Z" fill="#414042"/>
    <path d="M38.9595 15.2796H37.8268C37.7887 15.2811 37.7506 15.2751 37.7149 15.2619C37.6793 15.2487 37.6466 15.2286 37.6191 15.2028C37.5916 15.177 37.5698 15.1462 37.5548 15.1119C37.54 15.0777 37.5323 15.0408 37.5323 15.0036L37.4492 14.4516C37.2352 14.7865 36.9343 15.0595 36.5774 15.2426C36.2206 15.4256 35.8204 15.5121 35.4182 15.4932C34.1761 15.4932 33.5529 14.7018 33.5529 13.4208V9.02935C33.5524 8.98759 33.5605 8.94617 33.5767 8.90749C33.5928 8.86882 33.6168 8.83378 33.647 8.80436C33.6774 8.77481 33.7134 8.75143 33.7531 8.73565C33.7927 8.71988 33.8352 8.71207 33.878 8.71255H35.2411C35.3263 8.71529 35.4073 8.74957 35.4677 8.80855C35.528 8.86717 35.5632 8.94617 35.5661 9.02935V13.185C35.5661 13.845 35.7812 14.0429 36.2156 14.0429C36.4497 14.0209 36.6737 13.938 36.8645 13.8029C37.0546 13.6688 37.2048 13.4871 37.2995 13.2768V9.0288C37.2993 8.98765 37.3074 8.94685 37.3233 8.9088C37.3395 8.87012 37.3635 8.83501 37.3937 8.8056C37.4239 8.77611 37.4598 8.75287 37.4993 8.73716C37.5381 8.72167 37.5796 8.71371 37.6215 8.71378H38.9767C39.0191 8.71371 39.0611 8.72194 39.1004 8.73785C39.1396 8.75382 39.1752 8.77728 39.2052 8.80676C39.2351 8.83611 39.2587 8.87101 39.2746 8.90948C39.2906 8.94788 39.2986 8.98909 39.2981 9.03058V14.9706C39.2986 15.0119 39.2907 15.0529 39.2747 15.0911C39.2588 15.1294 39.2351 15.1641 39.2052 15.1932C39.1752 15.2224 39.1396 15.2454 39.1005 15.261C39.0614 15.2765 39.0195 15.2843 38.9773 15.2837" fill="#414042"/>
    <path d="M45.0567 14.7241C45.0872 14.7788 45.0999 14.8414 45.0933 14.9035C45.0866 14.9655 45.0608 15.0241 45.0194 15.0715C44.992 15.1031 44.9583 15.129 44.9204 15.1476C44.4429 15.3854 43.9156 15.5113 43.3802 15.5155C41.8924 15.5155 41.1604 14.6838 41.1604 13.1412V10.0801H40.5262C40.4619 10.081 40.3987 10.0629 40.345 10.0281C40.2913 9.99333 40.2495 9.94348 40.225 9.88505C40.2091 9.847 40.201 9.8062 40.2012 9.76505V9.02942C40.2006 8.98766 40.2087 8.94624 40.2249 8.90757C40.2411 8.86889 40.265 8.83385 40.2953 8.80444C40.3256 8.77488 40.3617 8.7515 40.4013 8.73573C40.441 8.71996 40.4834 8.71214 40.5262 8.71262H41.1494V7.57262C41.1539 7.49417 41.186 7.4197 41.2404 7.36204C41.295 7.3043 41.3682 7.26679 41.4476 7.25589L42.8028 7.11243C42.8464 7.10695 42.8907 7.11052 42.9329 7.12306C42.975 7.13554 43.0139 7.15666 43.0472 7.18505C43.0805 7.21351 43.1072 7.24876 43.1253 7.28832C43.1435 7.32789 43.1527 7.37088 43.1523 7.41429V8.71022H44.3413C44.3869 8.71207 44.4318 8.72352 44.4726 8.74382C44.5134 8.76405 44.5492 8.79271 44.5777 8.82782C44.6057 8.86286 44.6258 8.90338 44.6363 8.94665C44.6468 8.98999 44.6477 9.03497 44.6388 9.07865L44.5295 9.81484C44.5146 9.88834 44.4742 9.95452 44.4152 10.002C44.3559 10.0499 44.2817 10.0762 44.205 10.0764H43.1663V13.0873C43.1663 13.7203 43.3814 13.9446 43.8158 13.9446C43.9745 13.9445 44.1314 13.9118 44.2765 13.8486C44.3487 13.8209 44.4288 13.8193 44.5022 13.8443C44.5755 13.8693 44.6373 13.9191 44.6767 13.9849L45.0567 14.7241Z" fill="#414042"/>
    <path d="M51.9765 12.0108C51.9765 14.1054 50.7307 15.4908 48.6735 15.4908C46.6163 15.4908 45.3699 14.199 45.3699 11.994C45.3699 9.89404 46.6157 8.51404 48.6735 8.51404C50.7313 8.51404 51.9765 9.79502 51.9765 12.0108ZM47.4461 12.0108C47.4461 13.461 47.8536 14.0682 48.668 14.0682C49.4824 14.0682 49.8839 13.4352 49.8839 12.0282C49.8839 10.5558 49.48 9.95582 48.668 9.95582C47.856 9.95582 47.4461 10.5864 47.4461 12.0108Z" fill="#414042"/>
  </g>
  <defs>
    <clipPath id="clip0_136_1462">
      <rect width="81" height="24" fill="white"/>
    </clipPath>
  </defs>
</svg>
