
<svg width="81" height="24" viewBox="0 0 81 24" fill="none" xmlns="http://www.w3.org/2000/svg">
  <g clip-path="url(#clip0_136_1500)">
    <path d="M69.7656 0.254257H11.34C5.17696 0.254257 0.176086 5.41789 0.176086 11.7815V12.4361C0.176086 18.7997 5.17696 23.9633 11.34 23.9633H69.7304C75.8935 23.9633 80.8943 18.7997 80.8943 12.4361V11.7815C80.9296 5.41789 75.9287 0.254257 69.7656 0.254257Z" fill="#26B571"/>
    <path d="M59.5526 12.3628C59.5526 17.2719 55.6787 21.2719 50.8892 21.2719H11.7978C7.04347 21.2719 3.13434 17.2719 3.13434 12.3628V11.8537C3.13434 6.94463 7.00825 2.94461 11.7978 2.94461H50.8539C55.6083 2.94461 59.5174 6.94463 59.5174 11.8537V12.3628H59.5526Z" fill="white"/>
    <path d="M64.2365 13.8548C64.2365 14.4003 63.7787 14.873 63.2504 14.873C62.687 14.873 62.2643 14.4003 62.2643 13.8548C62.2643 13.3094 62.687 12.8367 63.2504 12.8367C63.7787 12.8367 64.2365 13.3094 64.2365 13.8548Z" fill="white"/>
    <path d="M69.977 9.20029C69.6248 9.27302 69.2022 9.34575 68.6035 9.34575C69.343 9.67302 69.6952 10.1094 69.6952 10.8731C69.6952 12.0367 68.7796 12.8367 67.3004 12.8367C67.0539 12.8367 66.8426 12.8367 66.6313 12.7639C66.4904 12.8367 66.42 12.9821 66.42 13.0912C66.42 13.273 66.4904 13.4548 67.0539 13.4548H67.9343C69.2726 13.4548 70.1178 14.1821 70.1178 15.1639C70.1178 16.4003 69.0613 17.1276 67.0891 17.1276C65.1522 17.1276 64.483 16.5457 64.3774 15.5639C64.3422 15.3821 64.5183 15.2367 64.6944 15.2367H65.6452C65.7861 15.2367 65.8917 15.3094 65.927 15.4548C65.9974 15.8185 66.3144 15.964 67.1596 15.964C68.1809 15.964 68.3922 15.673 68.3922 15.3094C68.3922 14.9457 68.1809 14.7276 67.5822 14.7276H66.737C65.4691 14.7276 64.9761 14.1821 64.9761 13.5639C64.9761 13.1276 65.2578 12.6912 65.6452 12.4367C64.9057 12.0367 64.6239 11.5276 64.6239 10.7276C64.6239 9.38211 65.6452 8.54575 67.1596 8.54575C68.2513 8.58211 68.9557 8.3276 69.5544 7.96397C69.6952 7.89124 69.9065 7.96397 69.977 8.14578L70.1883 8.80029C70.2587 8.98211 70.153 9.16393 69.977 9.20029ZM66.3496 10.7276C66.3496 11.3821 66.7017 11.7457 67.23 11.7457C67.7935 11.7457 68.0752 11.3821 68.0752 10.7276C68.0752 10.073 67.7935 9.74575 67.23 9.74575C66.7017 9.70938 66.3496 10.1094 66.3496 10.7276Z" fill="white"/>
    <path d="M75.7526 12.2551H72.1956C72.3013 13.3097 72.7943 13.6006 73.4987 13.6006C73.8861 13.6006 74.2382 13.4915 74.6256 13.2369C74.7665 13.1279 74.9426 13.2006 75.013 13.3097L75.3652 13.8188C75.4708 13.9642 75.4356 14.146 75.2948 14.2551C74.7665 14.6188 74.0974 14.9097 73.2874 14.9097C71.3856 14.9097 70.3995 13.6369 70.3995 11.7824C70.3995 10.0006 71.3504 8.5824 73.0761 8.5824C74.7313 8.5824 75.7174 9.70967 75.7174 11.6369C75.7526 11.7824 75.7526 12.0733 75.7526 12.2551ZM74.0974 11.0915C74.0621 10.2915 73.8508 9.70967 73.1465 9.70967C72.583 9.70967 72.2308 10.0733 72.1604 11.1642H74.0621V11.0915H74.0974Z" fill="white"/>
    <path d="M17.0452 10.581V15.0173C17.0452 15.1992 16.9043 15.3446 16.7282 15.3446H15.4604C15.2843 15.3446 15.1434 15.1992 15.1434 15.0173V10.9083C15.1434 10.2173 14.9321 10.0355 14.6152 10.0355C14.2278 10.0355 13.946 10.3628 13.6643 10.8719V14.981C13.6643 15.1628 13.5235 15.3083 13.3474 15.3083H12.0443C11.9035 15.3083 11.7626 15.1628 11.7626 14.981V10.9083C11.7626 10.2173 11.516 10.0355 11.1991 10.0355C10.8117 10.0355 10.5299 10.3628 10.2482 10.8719V14.981C10.2482 15.1628 10.1073 15.3083 9.96646 15.3083H8.66342C8.52255 15.3083 8.3465 15.1628 8.3465 14.981V9.12643C8.3465 8.94461 8.48733 8.79916 8.66342 8.79916H9.75519C9.89606 8.79916 10.0017 8.90825 10.0369 9.05371L10.1425 9.5628C10.6356 8.90825 11.1991 8.58098 11.9739 8.58098C12.6782 8.58098 13.2065 8.94461 13.453 9.59916C13.9461 8.90825 14.5447 8.58098 15.3195 8.58098C16.376 8.61734 17.0452 9.34461 17.0452 10.581Z" fill="#414042"/>
    <path d="M47.2617 10.581V15.0173C47.2617 15.1992 47.1209 15.3446 46.9448 15.3446H45.677C45.5009 15.3446 45.36 15.1992 45.36 15.0173V10.9083C45.36 10.2173 45.1487 10.0355 44.8317 10.0355C44.4444 10.0355 44.1626 10.3628 43.8809 10.8719V14.981C43.8809 15.1628 43.74 15.3083 43.5639 15.3083H42.2609C42.12 15.3083 41.9791 15.1628 41.9791 14.981V10.9083C41.9791 10.2173 41.7326 10.0355 41.4157 10.0355C41.0283 10.0355 40.7465 10.3628 40.4648 10.8719V14.981C40.4648 15.1628 40.3239 15.3083 40.183 15.3083H38.88C38.7391 15.3083 38.563 15.1628 38.563 14.981V9.12643C38.563 8.94461 38.7039 8.79916 38.88 8.79916H39.9717C40.1126 8.79916 40.2183 8.90825 40.2535 9.05371L40.3591 9.5628C40.8522 8.90825 41.4157 8.58098 42.1904 8.58098C42.8948 8.58098 43.4231 8.94461 43.6696 9.59916C44.1626 8.90825 44.7613 8.58098 45.5361 8.58098C46.5926 8.61734 47.2617 9.34461 47.2617 10.581Z" fill="#414042"/>
    <path d="M21.9404 15.3457C21.4474 16.9094 20.4613 17.8185 18.7004 18.0003C18.5595 18.0003 18.3834 17.8912 18.3834 17.7457L18.2778 16.9821C18.2426 16.8367 18.3482 16.6548 18.4891 16.6548C19.3343 16.5094 19.7921 16.2185 20.0739 15.673C19.8626 15.6367 19.616 15.273 19.5456 15.0185L17.82 9.23665C17.7495 9.05484 17.8904 8.83665 18.1017 8.83665H19.44C19.5808 8.83665 19.6865 8.94575 19.7569 9.0912L20.8134 14.1094L22.0108 9.0912C22.046 8.94575 22.1517 8.87302 22.2926 8.87302H23.5956C23.8069 8.87302 23.9478 9.0912 23.8773 9.27302L21.9404 15.3457Z" fill="#414042"/>
    <path d="M37.4361 12.0724C37.4361 14.1452 36.2739 15.527 34.3721 15.527C32.4704 15.527 31.3082 14.2543 31.3082 12.0724C31.3082 9.99971 32.4704 8.61789 34.3721 8.61789C36.2739 8.61789 37.4361 9.89062 37.4361 12.0724ZM33.21 12.0724C33.21 13.4906 33.5974 14.1088 34.3369 14.1088C35.0765 14.1088 35.4639 13.4906 35.4639 12.0724C35.4639 10.6179 35.0765 10.0361 34.3369 10.0361C33.5974 10.0361 33.21 10.6543 33.21 12.0724Z" fill="#414042"/>
    <path d="M54.2348 11.9639C54.2348 9.85485 53.1431 8.65485 51.347 8.65485C49.4453 8.65485 48.424 10.1821 48.424 12.1458C48.424 14.1821 49.4805 15.5639 51.5935 15.5639C52.4035 15.5639 53.0726 15.3094 53.6361 14.9458C53.6713 14.9458 53.6713 14.9094 53.7066 14.9094C53.7418 14.9094 53.777 14.873 53.777 14.8367C53.9179 14.7276 53.9531 14.5458 53.8474 14.4367L53.46 13.8185C53.3192 13.6003 53.1079 13.7094 53.0726 13.7094C53.0022 13.7458 52.9318 13.8185 52.8261 13.8548C52.474 14.073 52.1218 14.1458 51.7344 14.1458C50.9596 14.1458 50.4313 13.8185 50.2905 12.6548H54.1996C54.1996 12.473 54.2348 12.1821 54.2348 11.9639ZM52.4035 11.4912H50.3257C50.3961 10.3276 50.7835 9.92757 51.4174 9.92757C52.157 9.92757 52.4387 10.5458 52.4387 11.4185V11.4912H52.4035Z" fill="#414042"/>
    <path d="M30.146 10.5815C30.146 9.34509 29.4769 8.61782 28.4204 8.61782C27.6808 8.61782 27.1173 8.90873 26.6243 9.52691V7.30873V6.36328C26.6243 6.18146 26.4834 6.036 26.3073 6.07237L25.0395 6.21782C24.8986 6.25419 24.7578 6.36328 24.7578 6.54509V6.58146V14.9815V15.0542C24.7578 15.236 24.8986 15.3815 25.0747 15.3815H26.3425C26.5186 15.3815 26.6595 15.236 26.6595 15.0542V10.9087C26.9764 10.3996 27.3286 10.0724 27.7512 10.0724C28.1034 10.0724 28.3499 10.2542 28.3499 10.9451V14.9815V15.0542C28.3499 15.236 28.4908 15.3815 28.6669 15.3815H29.9347C30.1108 15.3815 30.2517 15.236 30.2517 15.0542L30.146 10.5815Z" fill="#414042"/>
  </g>
  <defs>
    <clipPath id="clip0_136_1500">
      <rect width="81" height="24" fill="white"/>
    </clipPath>
  </defs>
</svg>
