
<svg width="56" height="20" viewBox="0 0 56 20" fill="none" xmlns="http://www.w3.org/2000/svg">
  <g clip-path="url(#clip0_136_1461)">
    <path d="M1.52816 6.83417C1.50258 6.85377 1.48198 6.87893 1.46797 6.90765C1.45397 6.93637 1.44693 6.96788 1.44742 6.99972V18.3337C1.44742 18.3813 1.46316 18.4277 1.49227 18.4658C1.509 18.4867 1.52988 18.5041 1.55365 18.517C1.57742 18.5298 1.60359 18.5378 1.63058 18.5404C1.65757 18.543 1.68482 18.5403 1.71069 18.5323C1.73657 18.5243 1.76052 18.5113 1.78112 18.494L4.44361 16.2733C4.98822 15.8193 5.67929 15.5697 6.39382 15.5689H15.5833C15.6107 15.5684 15.6376 15.5627 15.6627 15.552C15.6878 15.5413 15.7105 15.5259 15.7294 15.5066C15.7484 15.4873 15.7634 15.4645 15.7734 15.4395C15.7834 15.4146 15.7883 15.3879 15.7879 15.3611V7.00501C15.788 6.97304 15.7806 6.94148 15.7663 6.91277C15.752 6.88405 15.7311 6.85896 15.7053 6.83946L8.74951 1.50002C8.71429 1.47259 8.67066 1.45767 8.62571 1.45767C8.58076 1.45767 8.53713 1.47259 8.50192 1.50002L1.52816 6.83417ZM0.0121204 6.99972C0.0109363 6.74397 0.069134 6.49131 0.182291 6.26094C0.295447 6.03056 0.460591 5.82851 0.665184 5.67014L7.63357 0.335984C7.9148 0.118604 8.26237 0.000406265 8.62034 0.000406265C8.9783 0.000406265 9.32587 0.118604 9.6071 0.335984L16.5773 5.67014C16.7816 5.8286 16.9465 6.0307 17.0594 6.26109C17.1722 6.49147 17.2301 6.74409 17.2285 6.99972V15.3558C17.2362 15.7899 17.068 16.2092 16.7608 16.5216C16.4537 16.834 16.0327 17.0139 15.5905 17.0217H6.40099C6.01984 17.0225 5.65148 17.1567 5.3622 17.4003L2.69254 19.6245C2.49371 19.791 2.25668 19.9077 2.00181 19.9644C1.70525 20.0218 1.39838 19.999 1.11399 19.8985C0.829593 19.798 0.578351 19.6236 0.387097 19.3938C0.144834 19.0932 0.0138769 18.7206 0.0157122 18.3372C-0.00761143 12.1208 -0.000438439 7.59143 0.0121204 6.99972ZM24.5378 16.4441C24.0079 16.4579 23.4807 16.3667 22.9875 16.1761C22.4943 15.9855 22.0453 15.6993 21.6672 15.3347C21.2794 14.9545 20.9741 14.5013 20.7697 14.0022C20.5653 13.5031 20.4659 12.9685 20.4777 12.4307V1.81702C20.4681 1.45688 20.6013 1.10714 20.8491 0.841398C20.9633 0.715117 21.1041 0.614743 21.2618 0.547234C21.4195 0.479725 21.5903 0.446703 21.7623 0.450455C21.9448 0.449979 22.1255 0.485077 22.294 0.553716C22.4626 0.622354 22.6155 0.723167 22.744 0.850298C22.8726 0.97743 22.9741 1.12835 23.0427 1.2943C23.1113 1.46025 23.1457 1.63793 23.1438 1.81702V12.4307C23.1438 13.2972 23.6246 13.7726 24.4768 13.785H24.5378C24.715 13.782 24.8908 13.8152 25.0542 13.8825C25.2176 13.9498 25.365 14.0497 25.4869 14.1759C25.6109 14.3017 25.7078 14.4508 25.772 14.6141C25.8361 14.7775 25.866 14.9519 25.8601 15.1269C25.8694 15.3006 25.8418 15.4744 25.7789 15.6371C25.716 15.7997 25.6193 15.9478 25.4949 16.0717C25.3705 16.1956 25.2211 16.2928 25.0563 16.3569C24.8915 16.421 24.7149 16.4507 24.5378 16.4441ZM29.5111 3.46358C29.3173 3.46493 29.1253 3.42663 28.9474 3.35113C28.7694 3.27564 28.6095 3.16458 28.4777 3.02507C28.3372 2.88636 28.2265 2.72136 28.1522 2.53985C28.078 2.35834 28.0416 2.16403 28.0453 1.96846C28.0445 1.57456 28.1995 1.19574 28.4777 0.911844C28.6104 0.774306 28.7708 0.665383 28.9487 0.592013C29.1266 0.518642 29.3182 0.482433 29.5111 0.485678C29.7039 0.483601 29.8951 0.520346 30.0728 0.593646C30.2506 0.666947 30.4111 0.775242 30.5445 0.911844C30.8221 1.19615 30.977 1.57471 30.9769 1.96846C30.9802 2.16398 30.9437 2.35817 30.8694 2.53962C30.7952 2.72108 30.6847 2.88612 30.5445 3.02507C30.4111 3.16296 30.2505 3.27291 30.0726 3.34827C29.8947 3.42364 29.7031 3.46287 29.5093 3.46358H29.5111ZM29.5111 16.5551C29.151 16.55 28.8071 16.4067 28.5533 16.1559C28.2994 15.9051 28.1557 15.5667 28.153 15.2132V6.02587C28.1565 5.66838 28.3034 5.32667 28.562 5.07491C28.6866 4.94831 28.8356 4.84742 29.0005 4.77816C29.1653 4.70891 29.3426 4.6727 29.5219 4.67165C29.6984 4.67037 29.8732 4.70562 30.0348 4.77511C30.1965 4.8446 30.3415 4.94674 30.4602 5.07491C30.6981 5.33676 30.8302 5.67501 30.8316 6.02587V15.2132C30.8354 15.3888 30.8034 15.5634 30.7375 15.7267C30.6716 15.89 30.573 16.0387 30.4476 16.1641C30.3278 16.29 30.1823 16.3899 30.0207 16.4572C29.8591 16.5246 29.6849 16.5579 29.5093 16.5551H29.5111ZM38.1929 16.4564C37.9259 16.4593 37.6641 16.3844 37.4405 16.2411C37.2169 16.0979 37.0417 15.8927 36.937 15.6517L33.1173 6.58765C33.0394 6.41404 32.995 6.22773 32.9863 6.03821C32.9884 5.6852 33.1254 5.34582 33.3703 5.08725C33.491 4.95505 33.6391 4.84961 33.8046 4.77795C33.9701 4.70629 34.1492 4.67005 34.3301 4.67165C34.5896 4.67743 34.842 4.75638 35.057 4.89908C35.2721 5.04178 35.4408 5.2422 35.543 5.47643L38.1624 11.9183L40.7674 5.48877C40.8678 5.24982 41.0374 5.04502 41.2553 4.89977C41.4731 4.75453 41.7295 4.67522 41.9928 4.67165C42.174 4.66992 42.3535 4.70607 42.5193 4.77773C42.6851 4.84939 42.8335 4.95491 42.9545 5.08725C43.1845 5.34802 43.3117 5.68097 43.3133 6.02587C43.312 6.22312 43.2712 6.4182 43.1931 6.59996L39.3967 15.6517C39.1043 16.2205 38.7114 16.4564 38.1911 16.4564H38.1929ZM50.1418 16.5797C49.3694 16.5784 48.6053 16.4231 47.8959 16.1231C47.1866 15.8231 46.5467 15.3847 46.0153 14.8345C44.8944 13.7153 44.2684 12.2074 44.2732 10.638C44.2676 9.062 44.888 7.5459 46.0027 6.41154C46.5342 5.86139 47.174 5.423 47.8834 5.123C48.5927 4.82299 49.3568 4.66764 50.1292 4.66636C50.9036 4.67005 51.6693 4.82643 52.381 5.12622C53.0926 5.42601 53.7356 5.86312 54.2718 6.41154C55.3736 7.55308 55.988 9.06553 55.9888 10.638C55.9974 12.2034 55.381 13.7098 54.2718 14.8345C53.7363 15.3804 53.0947 15.8155 52.3851 16.114C51.6754 16.4125 50.912 16.5685 50.14 16.5727L50.1418 16.5797ZM50.1418 13.8713C50.566 13.8711 50.9858 13.7866 51.3759 13.6229C51.7659 13.4591 52.1181 13.2195 52.4113 12.9185C53.0066 12.3019 53.3374 11.4841 53.3351 10.6347C53.3327 9.78517 52.9975 8.96913 52.3988 8.3557C52.1069 8.05883 51.7571 7.82273 51.3703 7.66146C50.9834 7.50019 50.5674 7.41708 50.1471 7.41708C49.7268 7.41708 49.3108 7.50019 48.924 7.66146C48.5371 7.82273 48.1873 8.05883 47.8955 8.3557C47.2948 8.96885 46.9593 9.78648 46.9593 10.6371C46.9593 11.4878 47.2948 12.3054 47.8955 12.9185C48.1845 13.2182 48.5324 13.4571 48.9182 13.6208C49.304 13.7846 49.7196 13.8698 50.14 13.8713H50.1418Z" fill="#1552F5"/>
  </g>
  <defs>
    <clipPath id="clip0_136_1461">
      <rect width="56" height="20" fill="white"/>
    </clipPath>
  </defs>
</svg>
