
<svg width="97" height="24" viewBox="0 0 97 24" fill="none" xmlns="http://www.w3.org/2000/svg">
  <path d="M8.44511 22.6217H78.1639V1.82227H7.62189L3.52704 4.67594L1.40198 9.64694V13.3131L4.10989 19.2129L8.44511 22.6217Z" fill="white"/>
  <path d="M69.0723 15.0896C69.0925 15.1295 69.105 15.1732 69.109 15.2182C69.113 15.2633 69.1084 15.3087 69.0955 15.3518C69.0827 15.3949 69.0617 15.4349 69.034 15.4695C69.0063 15.504 68.9723 15.5324 68.934 15.5529C68.4464 15.8092 67.9091 15.9433 67.3641 15.9446C65.8474 15.9312 65.1029 15.0314 65.1029 13.3349V9.99775H64.4647C64.421 9.99835 64.3776 9.98973 64.3371 9.9724C64.2966 9.95507 64.2598 9.92937 64.2288 9.89683C64.1979 9.86428 64.1735 9.82555 64.157 9.78292C64.1405 9.74029 64.1323 9.69461 64.1329 9.6486V8.83614C64.1323 8.79022 64.1405 8.74465 64.157 8.70214C64.1735 8.65963 64.198 8.62104 64.2289 8.58867C64.2599 8.55631 64.2967 8.53082 64.3372 8.51374C64.3778 8.49665 64.4211 8.48831 64.4647 8.48922H65.1029V7.24031C65.1072 7.15422 65.1399 7.07241 65.1954 7.00905C65.251 6.94569 65.3259 6.90477 65.4071 6.8934L66.7855 6.73449C66.8303 6.72806 66.8758 6.73185 66.9191 6.74559C66.9623 6.75934 67.0023 6.78271 67.0362 6.81414C67.0701 6.84556 67.0972 6.8843 67.1156 6.92771C67.134 6.97112 67.1433 7.0182 67.1429 7.06574V8.48922H68.3575C68.404 8.49115 68.4496 8.5037 68.491 8.52599C68.5325 8.54828 68.5688 8.57978 68.5975 8.61831C68.6263 8.65684 68.6467 8.70148 68.6574 8.74914C68.6681 8.7968 68.6689 8.84634 68.6596 8.89433L68.549 9.70679C68.5346 9.78802 68.4939 9.86147 68.4338 9.91456C68.3736 9.96765 68.2978 9.99706 68.2193 9.99775H67.1429V13.3058C67.1429 13.9996 67.3556 14.2481 67.8044 14.2481C67.9689 14.2479 68.1317 14.2129 68.2831 14.1451C68.3586 14.1138 68.4425 14.1129 68.5187 14.1426C68.5949 14.1723 68.6579 14.2306 68.6957 14.3062L69.0723 15.0896Z" fill="#414042"/>
  <path d="M18.6132 10.4163V15.3403C18.6149 15.3858 18.608 15.4313 18.5928 15.4739C18.5776 15.5166 18.5545 15.5556 18.5247 15.5888C18.495 15.6219 18.4593 15.6485 18.4197 15.6669C18.3801 15.6854 18.3374 15.6953 18.2941 15.6962H16.9029C16.8593 15.6968 16.816 15.6881 16.7756 15.6708C16.7352 15.6534 16.6985 15.6277 16.6678 15.5951C16.637 15.5625 16.6128 15.5238 16.5965 15.4812C16.5803 15.4385 16.5724 15.3929 16.5732 15.347V10.7946C16.5732 10.0246 16.3243 9.82095 15.9925 9.82095C15.5798 9.82095 15.2501 10.1679 14.9736 10.7632V15.347C14.9709 15.4383 14.9354 15.5252 14.8742 15.59C14.813 15.6549 14.7307 15.6928 14.6439 15.6962H13.2357C13.152 15.691 13.0735 15.6515 13.0171 15.5863C12.9606 15.521 12.9307 15.4352 12.9336 15.347V10.7946C12.9336 10.0246 12.6571 9.82095 12.3274 9.82095C11.9019 9.82095 11.5828 10.1679 11.2786 10.7632V15.347C11.2815 15.4355 11.2513 15.5217 11.1944 15.587C11.1375 15.6523 11.0585 15.6915 10.9745 15.6962H9.57263C9.48584 15.6928 9.40351 15.6549 9.34229 15.59C9.28108 15.5252 9.24556 15.4383 9.24292 15.347V8.82048C9.24556 8.72914 9.28108 8.64227 9.34229 8.57744C9.40351 8.51262 9.48584 8.47469 9.57263 8.47132H10.7596C10.8356 8.47051 10.9091 8.50011 10.9652 8.55412C11.0213 8.60814 11.0557 8.68254 11.0617 8.76229L11.1723 9.34198C11.3921 9.0024 11.6883 8.72534 12.0346 8.53554C12.3809 8.34574 12.7665 8.24909 13.157 8.25422C13.5061 8.23544 13.852 8.33365 14.1448 8.53474C14.4376 8.73582 14.6622 9.02942 14.7864 9.37331C15.3373 8.61904 15.9691 8.25422 16.8242 8.25422C17.9006 8.25422 18.6175 9.05325 18.6175 10.4163" fill="#414042"/>
  <path d="M36.3944 10.4162V15.3402C36.3952 15.3861 36.3873 15.4317 36.3711 15.4743C36.3548 15.517 36.3306 15.5557 36.2998 15.5883C36.2691 15.6209 36.2324 15.6466 36.192 15.664C36.1516 15.6813 36.1083 15.69 36.0646 15.6893H34.6862C34.6425 15.6899 34.5991 15.6813 34.5586 15.664C34.518 15.6467 34.4812 15.621 34.4503 15.5884C34.4194 15.5559 34.395 15.5171 34.3785 15.4745C34.362 15.4319 34.3538 15.3862 34.3544 15.3402V10.7944C34.3544 10.0245 34.1055 9.82084 33.7737 9.82084C33.361 9.82084 33.0313 10.1678 32.7547 10.7631V15.3469C32.7521 15.4382 32.7166 15.5251 32.6554 15.5899C32.5941 15.6548 32.5118 15.6927 32.425 15.6961H31.0189C30.9349 15.6914 30.8559 15.6522 30.799 15.5869C30.7421 15.5216 30.7119 15.4354 30.7148 15.3469V10.7944C30.7148 10.0245 30.4403 9.82084 30.1085 9.82084C29.6937 9.82084 29.364 10.1678 29.0598 10.7631V15.3469C29.0627 15.4354 29.0325 15.5216 28.9756 15.5869C28.9187 15.6522 28.8397 15.6914 28.7556 15.6961H27.3495C27.2622 15.6933 27.1791 15.6557 27.117 15.5908C27.055 15.526 27.0188 15.4388 27.0156 15.3469V8.82037C27.0187 8.7292 27.0544 8.64263 27.1155 8.57791C27.1766 8.51319 27.2587 8.4751 27.3453 8.47121H28.5323C28.6083 8.4704 28.6818 8.5 28.7378 8.55401C28.7939 8.60803 28.8284 8.68243 28.8343 8.76218L28.9449 9.34187C29.1651 9.00211 29.4617 8.72497 29.8084 8.53517C30.155 8.34537 30.541 8.24881 30.9317 8.25411C31.2806 8.23581 31.6259 8.33425 31.9183 8.53531C32.2106 8.73636 32.435 9.02969 32.559 9.3732C33.11 8.61893 33.7418 8.25411 34.599 8.25411C35.6732 8.25411 36.3901 9.05314 36.3901 10.4162" fill="#414042"/>
  <path d="M23.9627 15.7118C23.4394 17.4374 22.3631 18.4827 20.4061 18.6864C20.3223 18.6944 20.2388 18.6689 20.1722 18.6149C20.1055 18.561 20.0607 18.4826 20.0466 18.3954L19.936 17.5404C19.9222 17.4556 19.9406 17.3686 19.9871 17.2979C20.0336 17.2272 20.1046 17.1785 20.1848 17.1622C21.1229 16.9876 21.5909 16.6698 21.9228 16.0587C21.71 16.0028 21.425 15.6245 21.3442 15.347L19.4297 8.92118C19.4126 8.87026 19.4074 8.81574 19.4146 8.76226C19.4218 8.70878 19.4411 8.65792 19.471 8.61398C19.5008 8.57005 19.5403 8.53434 19.5861 8.50989C19.6319 8.48544 19.6826 8.47297 19.7339 8.47354H21.1953C21.2712 8.4754 21.3445 8.50329 21.404 8.55297C21.4635 8.60266 21.506 8.67143 21.525 8.74884L22.6949 14.3241L23.9904 8.72869C24.0067 8.65595 24.0453 8.59088 24.1003 8.54355C24.1553 8.49622 24.2236 8.46925 24.2946 8.46683H25.7006C25.752 8.4661 25.8027 8.4785 25.8484 8.50295C25.8942 8.52741 25.9336 8.56319 25.9633 8.60722C25.9931 8.65125 26.0122 8.70222 26.019 8.75574C26.0259 8.80925 26.0203 8.86372 26.0027 8.91446L23.9627 15.7118Z" fill="#414042"/>
  <path d="M63.6032 11.9546C63.6032 9.61346 62.4013 8.25488 60.4358 8.25488C58.3554 8.25488 57.2301 9.96709 57.2301 12.1314C57.2301 14.3897 58.3937 15.9363 60.6825 15.9363C61.4735 15.9422 62.2494 15.7092 62.9182 15.2649L62.9863 15.2201C63.017 15.2016 63.0468 15.1814 63.0756 15.1597C63.1426 15.1084 63.1886 15.0323 63.2044 14.9467C63.2202 14.8612 63.2046 14.7725 63.1607 14.6986L62.7225 14.0025C62.6764 13.933 62.6077 13.8835 62.5294 13.8633C62.4512 13.8432 62.3686 13.8537 62.2971 13.8929C62.2141 13.9466 62.129 13.9958 62.0418 14.0473C61.6826 14.2631 61.277 14.3787 60.8633 14.383C60.0231 14.383 59.4403 14.0294 59.2977 12.7357H63.5521C63.5824 12.4765 63.5995 12.2157 63.6032 11.9546ZM61.5994 11.4376H59.3169C59.4083 10.1439 59.8083 9.68284 60.4953 9.68284C61.3101 9.68284 61.593 10.3543 61.6057 11.3413L61.5994 11.4376Z" fill="#414042"/>
  <path d="M43.8587 14.7574L43.5821 15.6281C43.5557 15.7027 43.5059 15.7655 43.4409 15.8062C43.3759 15.8469 43.2996 15.863 43.2248 15.8519C42.5632 15.7512 42.1207 15.4759 41.8463 14.8358C41.3507 15.6326 40.6041 15.9235 39.7766 15.9235C38.4258 15.9235 37.543 14.9813 37.543 13.6607C37.543 12.094 38.6747 11.239 40.77 11.239H41.4592V10.9279C41.4592 10.0729 41.1571 9.80883 40.302 9.80883C39.795 9.83058 39.2936 9.92856 38.813 10.0998C38.7283 10.1255 38.6375 10.1167 38.5587 10.0753C38.4799 10.0338 38.4188 9.96266 38.3875 9.87598L38.1386 9.09261C38.1121 9.00792 38.1174 8.91575 38.1534 8.83501C38.1894 8.75427 38.2534 8.69108 38.3322 8.65841C39.0749 8.40624 39.8492 8.27197 40.6296 8.26001C42.6164 8.26001 43.4715 9.12842 43.4715 10.8115V13.6137C43.4715 14.0323 43.5545 14.2494 43.7183 14.3814C43.7766 14.4202 43.8216 14.4776 43.8465 14.5454C43.8714 14.6131 43.8749 14.6875 43.8565 14.7574H43.8587ZM41.4592 13.6988V12.423H40.9636C40.0255 12.423 39.5851 12.7699 39.5851 13.4817C39.5851 14.0614 39.8872 14.3949 40.385 14.3949C40.6072 14.3925 40.8247 14.3264 41.0139 14.2038C41.2032 14.0812 41.3571 13.9066 41.4592 13.6988Z" fill="#414042"/>
  <path d="M49.2996 8.29308H49.2358C49.139 8.28188 49.0417 8.27665 48.9444 8.27742C48.1552 8.27742 47.4851 8.87501 47.1745 9.88219L47.0575 8.98692V8.89963V8.83696C47.0496 8.74177 47.008 8.65315 46.9411 8.58854C46.8742 8.52393 46.7867 8.488 46.6959 8.48781H45.5706C45.5267 8.4869 45.4831 8.4953 45.4423 8.5125C45.4015 8.5297 45.3645 8.55534 45.3333 8.58792C45.3022 8.62049 45.2776 8.65933 45.2609 8.70211C45.2443 8.74489 45.2361 8.79075 45.2367 8.83696V8.9914V15.1934V15.2852V15.3478C45.2361 15.3937 45.2443 15.4393 45.2608 15.4818C45.2773 15.5243 45.3017 15.5629 45.3327 15.5953C45.3637 15.6277 45.4005 15.6531 45.441 15.6702C45.4815 15.6873 45.5249 15.6957 45.5685 15.6948H46.9491C46.9927 15.6957 47.0361 15.6873 47.0766 15.6702C47.1171 15.6531 47.1539 15.6277 47.1849 15.5953C47.2158 15.5629 47.2403 15.5243 47.2568 15.4818C47.2733 15.4393 47.2815 15.3937 47.2809 15.3478V15.2001V12.0667C47.5128 10.9923 47.8637 10.3522 48.7019 10.3522C48.7923 10.3526 48.8826 10.3601 48.972 10.3746H49.0443C49.1222 10.3696 49.1961 10.3371 49.2541 10.2822C49.312 10.2273 49.3506 10.1534 49.3634 10.0724L49.5868 8.67134C49.5944 8.62623 49.5928 8.57993 49.582 8.53554C49.5713 8.49114 49.5517 8.44966 49.5245 8.41387C49.4973 8.37808 49.4632 8.34879 49.4244 8.32796C49.3857 8.30713 49.3431 8.29524 49.2996 8.29308Z" fill="#414042"/>
  <path d="M52.5416 5.86743V5.77567C52.5419 5.72805 52.5326 5.68091 52.5142 5.6374C52.4958 5.5939 52.4688 5.55504 52.4349 5.52344C52.4011 5.49185 52.3612 5.46825 52.3179 5.45423C52.2747 5.44021 52.2291 5.4361 52.1842 5.44218L50.8058 5.60109C50.7244 5.61296 50.6495 5.65432 50.594 5.71805C50.5384 5.78178 50.5058 5.8639 50.5016 5.95024V5.97039V15.3036V15.3663C50.5007 15.413 50.5089 15.4593 50.5256 15.5026C50.5424 15.5458 50.5674 15.585 50.5991 15.6177C50.6307 15.6504 50.6684 15.6759 50.7098 15.6927C50.7512 15.7095 50.7955 15.7173 50.8398 15.7154H52.2182C52.2613 15.7151 52.304 15.7058 52.3436 15.6881C52.3833 15.6703 52.4192 15.6445 52.4493 15.612C52.4794 15.5795 52.503 15.541 52.5189 15.4989C52.5347 15.4567 52.5424 15.4116 52.5416 15.3663V5.86743Z" fill="#414042"/>
  <path d="M56.7511 15.3652L56.7192 15.3025L54.7069 11.6565L56.5831 8.82075L56.6108 8.77151C56.7086 8.62603 56.6618 8.50293 56.481 8.50293H54.992C54.8976 8.50731 54.8053 8.53367 54.7218 8.58012C54.6383 8.62656 54.5657 8.69193 54.5091 8.77151L52.6244 11.7908L54.4793 15.3719C54.534 15.4689 54.6097 15.551 54.7003 15.6113C54.7909 15.6716 54.8937 15.7084 55.0005 15.7188H56.6129C56.7958 15.7121 56.8533 15.5532 56.7511 15.3652Z" fill="#414042"/>
  <path d="M85.9152 0H11.0848C8.14473 0.000593528 5.32528 1.22988 3.24653 3.41751C1.16779 5.60513 -5.41151e-08 8.57193 0 11.6654L0 12.3368C0.000563971 15.4299 1.1686 18.3961 3.24729 20.5833C5.32597 22.7704 8.1451 23.9994 11.0848 24H85.9152C87.3712 23.9997 88.8128 23.6977 90.1578 23.1112C91.5028 22.5247 92.7249 21.6651 93.7542 20.5817C94.7835 19.4983 95.6 18.2121 96.1569 16.7967C96.7138 15.3813 97.0003 13.8643 97 12.3324V11.6609C96.9989 8.56822 95.8306 5.60258 93.752 3.41592C91.6733 1.22927 88.8545 0.000593151 85.9152 0V0ZM75.1601 12.2585C75.1567 14.6571 74.2486 16.9562 72.6353 18.6508C71.0219 20.3454 68.8353 21.2969 66.5556 21.2963H11.5549C9.27526 21.2969 7.0886 20.3454 5.47525 18.6508C3.8619 16.9562 2.9538 14.6571 2.95042 12.2585V11.737C2.9538 9.33843 3.8619 7.03933 5.47525 5.34474C7.0886 3.65015 9.27526 2.69865 11.5549 2.69924H66.5556C68.8353 2.69865 71.0219 3.65015 72.6353 5.34474C74.2486 7.03933 75.1567 9.33843 75.1601 11.737V12.2585Z" fill="#FFD102"/>
  <path d="M79.4616 14.0424C79.4567 14.3405 79.3419 14.625 79.1415 14.8359C78.9411 15.0468 78.6707 15.1675 78.3873 15.1727C78.1024 15.1727 77.8292 15.0536 77.6277 14.8416C77.4263 14.6297 77.3131 14.3422 77.3131 14.0424C77.3131 13.7426 77.4263 13.4551 77.6277 13.2432C77.8292 13.0312 78.1024 12.9121 78.3873 12.9121C78.6705 12.9178 78.9406 13.0388 79.1409 13.2495C79.3412 13.4602 79.4561 13.7444 79.4616 14.0424Z" fill="white"/>
  <path d="M85.7493 8.8506C85.2603 8.96169 84.7603 9.01053 84.2602 8.99608C85.0601 9.35643 85.4451 9.85106 85.4451 10.7083C85.4451 11.984 84.4517 12.9129 82.8244 12.9129C82.5835 12.9196 82.3428 12.8956 82.1075 12.8413C82.0436 12.8785 81.9902 12.933 81.9528 12.999C81.9155 13.0651 81.8954 13.1404 81.8948 13.2173C81.8948 13.421 81.9778 13.609 82.584 13.609H83.5476C85.0111 13.609 85.9492 14.4214 85.9492 15.5226C85.9492 16.8879 84.7899 17.7138 82.6393 17.7138C80.4887 17.7138 79.7995 17.0625 79.6612 15.9725C79.6568 15.9251 79.6618 15.8774 79.6759 15.8322C79.69 15.787 79.7129 15.7454 79.7431 15.71C79.7733 15.6746 79.8102 15.6462 79.8514 15.6267C79.8926 15.6072 79.9372 15.5969 79.9824 15.5965H81.029C81.1008 15.5961 81.1704 15.622 81.2259 15.6698C81.2814 15.7176 81.3194 15.7843 81.3332 15.8583C81.4162 16.25 81.7459 16.4089 82.684 16.4089C83.788 16.4089 84.0348 16.0889 84.0348 15.6681C84.0348 15.2473 83.788 15.0168 83.152 15.0168H82.2415C80.8631 15.0168 80.3122 14.4214 80.3122 13.7097C80.3276 13.4513 80.4037 13.2009 80.5337 12.981C80.6636 12.7611 80.8433 12.5785 81.0567 12.4496C80.2569 12.002 79.9271 11.4178 79.9271 10.5628C79.9271 9.0677 81.0567 8.14109 82.6925 8.14109C83.6035 8.18954 84.5087 7.96194 85.3004 7.48531C85.3437 7.46392 85.3908 7.45225 85.4386 7.45103C85.4864 7.44982 85.5339 7.45908 85.5781 7.47824C85.6223 7.4974 85.6623 7.52603 85.6954 7.56231C85.7285 7.59859 85.7541 7.64173 85.7705 7.68898L85.9833 8.41415C85.9966 8.45988 86.0008 8.50805 85.9954 8.55556C85.99 8.60307 85.9752 8.64886 85.9519 8.68998C85.9287 8.7311 85.8975 8.76664 85.8604 8.7943C85.8233 8.82197 85.7811 8.84114 85.7365 8.8506H85.7493ZM81.765 10.5337C81.765 11.2589 82.1501 11.6528 82.7308 11.6528C83.3115 11.6528 83.6668 11.2611 83.6668 10.5068C83.6668 9.75258 83.3647 9.43252 82.7308 9.43252C82.1501 9.43252 81.765 9.8533 81.765 10.5359" fill="white"/>
  <path d="M92.0351 12.2298H88.1488C88.2594 13.4205 88.8103 13.7383 89.5825 13.7383C90.0267 13.7298 90.4595 13.5894 90.8311 13.3332C90.9008 13.2873 90.9838 13.2693 91.065 13.2824C91.1463 13.2956 91.2203 13.339 91.2736 13.4048L91.6586 13.9711C91.686 14.0085 91.7057 14.0516 91.7164 14.0975C91.7271 14.1434 91.7286 14.1911 91.7208 14.2376C91.713 14.2842 91.696 14.3285 91.671 14.3678C91.6461 14.407 91.6136 14.4404 91.5757 14.4657C90.9338 14.9269 90.1746 15.1734 89.3974 15.173C87.3021 15.173 86.2534 13.7517 86.2534 11.6926C86.2534 9.70511 87.2745 8.14062 89.1783 8.14062C90.9694 8.14062 92.0713 9.38505 92.0713 11.5203C92.0765 11.7572 92.0672 11.9941 92.0436 12.2298H92.0351ZM90.244 10.9674C90.2164 10.0722 89.9675 9.44325 89.223 9.44325C88.5848 9.44325 88.2317 9.86626 88.1488 11.0547H90.244V10.9674Z" fill="white"/>
</svg>
