<svg width="87" height="27" viewBox="0 0 87 27" fill="none" xmlns="http://www.w3.org/2000/svg">
<g clip-path="url(#clip0_2486_16282)">
<path d="M16.1478 21.0745C16.3544 21.0059 16.5331 20.893 16.6773 20.75C17.0297 20.3997 17.1742 19.8691 17.0054 19.3676C16.7676 18.6611 15.9982 18.2797 15.2867 18.5159C13.3579 19.1561 11.2665 18.6668 9.82877 17.2388C8.39152 15.8113 7.89906 13.7348 8.54357 11.8192C8.78143 11.1126 8.39728 10.3486 7.68601 10.1124C6.97448 9.87614 6.2049 10.258 5.96743 10.964C4.99413 13.8559 5.73775 16.9912 7.90788 19.1464C10.0786 21.3023 13.236 22.0412 16.1478 21.0746V21.0745Z" fill="#3C74FF"/>
<path d="M5.91131 5.86971C9.45794 2.34763 14.9276 1.68545 19.2128 4.25948C19.7586 4.58727 20.444 4.48884 20.8757 4.05997C20.9517 3.98453 21.0197 3.8988 21.0778 3.80343C21.466 3.16602 21.2606 2.33671 20.6187 1.95114C15.2611 -1.26716 8.42352 -0.44014 3.99055 3.96218C-0.44357 8.36576 -1.2762 15.1566 1.96557 20.4762C2.35407 21.1135 3.18925 21.3174 3.83083 20.9316C4.47291 20.5462 4.67791 19.7167 4.28966 19.0793C1.69689 14.8248 2.36379 9.39268 5.91131 5.86958V5.86971Z" fill="#3C74FF"/>
<path d="M23.3572 6.06958C22.7143 6.45553 22.51 7.28471 22.8983 7.922C25.4911 12.1764 24.8247 17.6077 21.2777 21.1305C17.7307 24.6529 12.2614 25.315 7.97752 22.7401C7.33582 22.3545 6.50127 22.5567 6.11226 23.1957C5.72401 23.8329 5.92926 24.6622 6.57109 25.048C11.9275 28.2676 18.765 27.4409 23.1983 23.0381C27.6319 18.6351 28.4642 11.8448 25.2224 6.52525C24.8338 5.88784 23.9987 5.68388 23.3572 6.06958Z" fill="#3C74FF"/>
<path d="M19.4468 16.9843C19.9564 17.1623 20.501 17.0207 20.859 16.6651C20.9982 16.5271 21.1091 16.3564 21.1789 16.1597C22.2013 13.2744 21.4559 10.0137 19.2799 7.85264C17.1033 5.69085 13.8198 4.95121 10.9155 5.96797C10.2083 6.21562 9.83685 6.98587 10.0861 7.68843C10.3355 8.39112 11.1112 8.7598 11.8187 8.51202C13.7427 7.83842 15.9173 8.32838 17.359 9.76005C18.8006 11.1916 19.2942 13.3521 18.6166 15.264C18.3676 15.9668 18.7394 16.7369 19.4469 16.9842L19.4468 16.9843Z" fill="#3C74FF"/>
<path d="M11.8904 11.8081C10.9496 12.7425 10.9496 14.2576 11.8904 15.192C12.8314 16.1264 14.357 16.1264 15.2978 15.192C16.2387 14.2576 16.2387 12.7425 15.2978 11.8081C14.357 10.8737 12.8314 10.8737 11.8904 11.8081Z" fill="#3C74FF"/>
<path d="M51.3642 20.3956H46.3788V17.225H51.3642V20.3956ZM50.3972 15.0788H44.2185V24.0514C44.2185 24.6436 44.702 25.1238 45.2983 25.1238C45.8946 25.1236 46.3787 24.6439 46.3789 24.0514V22.5419H50.3972C52.1238 22.5419 53.5245 21.1518 53.5245 19.436V18.1846C53.5245 16.4689 52.1238 15.0788 50.3972 15.0788Z" fill="#3C74FF"/>
<path d="M61.9212 20.3956H56.9358V17.225H61.9212V20.3956ZM60.9542 15.0788H54.7756V24.0514C54.7756 24.6436 55.2591 25.1238 55.8552 25.1238C56.4516 25.1236 56.9357 24.6439 56.9358 24.0514V22.5419H60.954C62.6807 22.5419 64.0815 21.1518 64.0815 19.436V18.1846C64.0815 16.4689 62.6807 15.0788 60.954 15.0788H60.9542Z" fill="#3C74FF"/>
<path d="M36.7004 20.5281L37.8601 17.2248H40.5859V20.5281H36.7004ZM37.9631 15.0786C37.0937 15.0786 36.3135 15.6085 35.9982 16.4132L33.1959 23.5683C32.9023 24.3178 33.4591 25.126 34.2687 25.126C34.7583 25.126 35.1944 24.8183 35.3556 24.359L35.9835 22.5703H40.5859V24.0531C40.5859 24.6456 41.0695 25.126 41.666 25.126C42.2626 25.126 42.7461 24.6457 42.7461 24.0531V15.0786H37.9631Z" fill="#3C74FF"/>
<path d="M44.5652 8.81569V2.94678C44.5652 2.35433 45.0487 1.87415 45.6454 1.87415C46.242 1.87415 46.7255 2.35433 46.7255 2.94678V9.7753H52.5655V2.94678C52.5655 2.35433 53.049 1.87415 53.6456 1.87415C54.2421 1.87415 54.7258 2.35433 54.7258 2.94678V8.81569C54.7258 10.5309 53.3255 11.9216 51.5983 11.9216H47.5233C45.7962 11.9216 44.5653 10.5309 44.5653 8.81569H44.5652Z" fill="#3C74FF"/>
<path d="M68.8966 4.13295V5.88148H76.0424V8.02701H68.8966V9.77554H76.0424V11.9218H69.8638C68.1371 11.9218 66.7363 10.5316 66.7363 8.81593V5.09281C66.7363 3.37705 68.1371 1.98691 69.8638 1.98691H76.0424V4.1332H68.8966V4.13295Z" fill="#3C74FF"/>
<path d="M63.3908 7.28764H58.4062V4.11608H63.3908V7.28764ZM62.4238 1.97067H56.2451V10.9436C56.2451 11.5356 56.7286 12.016 57.3257 12.016C57.9215 12.0157 58.4063 11.536 58.4063 10.9436V9.43406H62.4238C64.1504 9.43406 65.5511 8.04392 65.5511 6.32816V5.0767C65.5511 3.36106 64.1505 1.9708 62.4238 1.9708V1.97067Z" fill="#3C74FF"/>
<path d="M84.8398 7.28764H79.8544V4.13284H84.8398V7.28764ZM86.9999 6.32803V5.07658C86.9999 3.36094 85.5994 1.97067 83.8726 1.97067H77.694V12.0158H79.8544V9.43393H81.83L84.2029 12.0158H86.9458L84.5642 9.3557C85.9582 9.04341 86.9999 7.80694 86.9999 6.32803Z" fill="#3C74FF"/>
<path d="M36.2151 4.11645V5.88098H40.7739C42.2027 5.88098 43.3609 7.03109 43.3609 8.45006V8.81531C43.3609 10.5306 41.9606 11.9211 40.2335 11.9211H34.1395V9.77479H41.2005V8.01038L36.6475 8.02054C35.2165 8.02372 34.0548 6.87259 34.0548 5.45147V5.07606C34.0548 3.36029 35.4555 1.97015 37.1821 1.97015H42.8934V4.11645H36.215H36.2151Z" fill="#3C74FF"/>
</g>
<defs>
<clipPath id="clip0_2486_16282">
<rect width="87" height="27" fill="white"/>
</clipPath>
</defs>
</svg>
