<svg width="133" height="28" viewBox="0 0 133 28" fill="none" xmlns="http://www.w3.org/2000/svg">
<g clip-path="url(#clip0_565_34257)">
<path d="M34.4749 7.00018L27.6305 1.24463C26.5416 0.311292 24.8305 -0.155375 23.4305 0.000180963L3.51936 3.57796C1.34158 3.88907 -0.213975 6.06685 0.097136 8.24463L2.43047 22.0891C2.74158 24.2668 4.91936 25.8224 7.09714 25.5113L27.0082 22.0891C28.5638 21.778 29.8083 20.8446 30.586 19.6002L35.0971 11.8224C36.3416 10.1113 35.8749 8.24463 34.4749 7.00018ZM15.8082 20.8446L12.8527 17.8891L18.1416 12.4446L12.6971 7.15574L15.6527 4.20018L24.2082 12.4446L15.8082 20.8446Z" fill="#72BF44"/>
<path d="M52.3638 11.0444L50.8083 10.4222C49.2527 9.79999 47.5416 9.02221 47.5416 7.46666C47.5416 6.22221 48.4749 5.13332 50.6527 5.13332C52.9861 5.13332 55.0083 6.84443 55.4749 7.3111L55.9416 7.77777L56.5638 5.44443L56.2527 5.28888C55.1638 4.66666 52.9861 4.04443 50.8083 4.04443C47.2305 4.04443 44.8972 6.06666 44.8972 8.86666C44.8972 11.9778 47.6972 13.0667 49.7194 14L51.1194 14.6222C53.2972 15.5555 54.6972 16.1778 54.6972 17.7333C54.6972 19.2889 53.2972 20.3778 51.1194 20.3778C49.0972 20.3778 47.2305 19.4444 45.8305 17.8889L45.3638 17.4222L44.5861 19.9111L44.7416 20.0667C46.1416 21 48.4749 21.6222 50.6527 21.6222C54.5416 21.6222 57.1861 19.6 57.1861 16.4889C57.1861 13.0667 54.3861 11.9778 52.3638 11.0444Z" fill="#231F20"/>
<path d="M80.3638 4.35547H77.7194V4.66658C77.5638 6.84436 76.6305 9.79991 75.2305 13.5332L74.4527 15.711L70.0971 4.35547H69.4749L65.1194 15.8666L60.6082 4.35547H56.7194L63.5638 21.6221H64.3416L68.5416 10.4221L72.7416 21.6221H73.5194L76.4749 13.8444C78.0305 9.79991 78.9638 7.46658 80.2082 4.97769L80.3638 4.35547Z" fill="#231F20"/>
<path d="M88.2971 4.04443C83.1638 4.04443 79.7416 7.62221 79.7416 12.9111C79.7416 18.0444 83.1638 21.6222 88.1416 21.6222C93.2749 21.6222 96.6971 18.0444 96.6971 12.7555C96.5416 7.46666 93.2749 4.04443 88.2971 4.04443ZM88.1416 5.13332C90.9416 5.13332 92.8082 8.24443 92.8082 12.7555C92.8082 17.2667 90.9416 20.2222 88.1416 20.2222C85.3416 20.2222 83.4749 17.1111 83.4749 12.6C83.4749 8.08888 85.3416 5.13332 88.1416 5.13332Z" fill="#231F20"/>
<path d="M106.342 4.04443C101.208 4.04443 97.786 7.62221 97.786 12.9111C97.786 18.0444 101.208 21.6222 106.186 21.6222C111.319 21.6222 114.742 18.0444 114.742 12.7555C114.586 7.46666 111.319 4.04443 106.342 4.04443ZM106.186 5.13332C108.986 5.13332 110.853 8.24443 110.853 12.7555C110.853 17.2667 108.986 20.2222 106.186 20.2222C103.386 20.2222 101.519 17.1111 101.519 12.6C101.519 8.08888 103.386 5.13332 106.186 5.13332Z" fill="#231F20"/>
<path d="M125.164 4.04443C123.297 4.04443 121.742 4.66666 120.186 6.06666V4.04443H119.875L116.608 4.97777V28H120.186V20.2222C121.43 21 122.675 21.4667 124.231 21.4667C128.897 21.4667 132.319 17.5778 132.319 12.4444C132.319 7.62221 129.364 4.04443 125.164 4.04443ZM120.186 17.5778V7.77777C121.43 6.53332 122.831 5.75554 124.231 5.75554C126.875 5.75554 128.586 8.39999 128.586 12.7555C128.586 17.2667 126.719 20.2222 123.919 20.2222C122.364 20.2222 120.808 19.2889 120.186 17.5778Z" fill="#231F20"/>
</g>
<defs>
<clipPath id="clip0_565_34257">
<rect width="132.222" height="28" fill="white" transform="translate(0.097168)"/>
</clipPath>
</defs>
</svg>
