<svg width="81" height="17" viewBox="0 0 81 17" fill="none" xmlns="http://www.w3.org/2000/svg">
<g clip-path="url(#clip0_2486_16274)">
<path d="M19.9989 12.1983C19.8547 12.1983 19.7316 12.1432 19.623 12.0379C19.5161 11.9294 19.4627 11.8047 19.4627 11.6621V11.1437H23.6244V7.45981H19.4627V6.92845C19.4627 6.78589 19.5145 6.66115 19.623 6.55423C19.7316 6.44731 19.8547 6.39385 19.9989 6.39385H26.2164V2.59657H19.9843C18.5279 2.59657 17.5802 2.98537 16.7929 3.76297C16.059 4.50655 15.6702 5.38621 15.6249 6.40681V12.1983C15.6702 13.2173 16.059 14.097 16.7929 14.8389C17.5802 15.6165 18.5279 16.0037 19.636 16.0037H26.2181V12.1967H19.9989V12.1983Z" fill="#7CB339"/>
<path d="M44.9113 2.59494H41.1027V16.0053H44.9113C46.7597 16.0053 48.3408 15.3508 49.6514 14.0419C50.9604 12.7329 51.6165 11.1518 51.6165 9.30174C51.6165 7.45008 50.9604 5.8722 49.6514 4.56C48.3392 3.24942 46.7597 2.59494 44.9113 2.59494ZM46.9476 11.3462C46.3855 11.9132 45.7067 12.1967 44.9113 12.1967V6.39222C45.7067 6.39222 46.3855 6.67572 46.9476 7.24272C47.5114 7.81134 47.7933 8.49822 47.7933 9.30174C47.7933 10.0972 47.5114 10.7776 46.9476 11.3462Z" fill="#1D41EF"/>
<path d="M59.4492 2.59494C57.5975 2.59494 56.018 3.25266 54.7075 4.56486C53.3969 5.8803 52.744 7.45656 52.744 9.30012C52.744 11.1502 53.3969 12.7297 54.7075 14.0402C56.018 15.3492 57.5975 16.0037 59.4492 16.0037C61.2992 16.0037 62.882 15.3492 64.1958 14.0402C65.5096 12.7297 66.1673 11.1502 66.1673 9.30012C66.1673 7.45656 65.5096 5.8803 64.1958 4.56486C62.882 3.25266 61.2992 2.59494 59.4492 2.59494ZM61.4936 11.3462C60.9266 11.9132 60.243 12.1967 59.4492 12.1967C58.6538 12.1967 57.9701 11.9132 57.4031 11.3462C56.8361 10.7792 56.551 10.0907 56.551 9.28554C56.551 8.49174 56.8361 7.80972 57.4031 7.2411C57.9701 6.6741 58.6538 6.3906 59.4492 6.3906C60.243 6.3906 60.925 6.6741 61.4936 7.2411C62.059 7.80972 62.3458 8.49174 62.3458 9.28554C62.3458 10.0907 62.059 10.7776 61.4936 11.3462Z" fill="#662395"/>
<path d="M78.7465 4.56486C77.4327 3.25266 75.85 2.59494 73.9999 2.59494C72.1499 2.59494 70.572 3.25266 69.2598 4.56486C67.9492 5.8803 67.2964 7.45656 67.2964 9.30012C67.2964 11.1502 67.9492 12.7297 69.2598 14.0402C70.572 15.3492 72.1499 16.0037 73.9999 16.0037C75.85 16.0037 77.4327 15.3492 78.7465 14.0402C80.0604 12.7297 80.7181 11.1502 80.7181 9.30012C80.7181 7.45818 80.0604 5.8803 78.7465 4.56486ZM76.046 11.3462C75.4774 11.9132 74.7954 12.1967 74.0016 12.1967C73.2061 12.1967 72.5241 11.9132 71.9571 11.3462C71.3901 10.7792 71.1034 10.0907 71.1034 9.28554C71.1034 8.49174 71.3901 7.80972 71.9571 7.2411C72.5225 6.6741 73.2061 6.3906 74.0016 6.3906C74.797 6.3906 75.479 6.6741 76.046 7.2411C76.6114 7.80972 76.8965 8.49174 76.8965 9.28554C76.8965 10.0907 76.6114 10.7776 76.046 11.3462Z" fill="#FF9600"/>
<path d="M39.11 2.59657H35.3014V8.36863L32.5393 3.74515H32.5377C32.1181 3.09715 31.3907 2.66785 30.5613 2.66785C29.2604 2.66785 28.2074 3.72247 28.2074 5.02171C28.2074 5.03143 28.209 5.03953 28.209 5.04763H28.2074V16.0426H32.016V10.0486L34.9255 14.9183L34.9272 14.9167C35.3224 15.5679 36.0369 16.0053 36.855 16.0053C38.1007 16.0053 39.11 14.9961 39.11 13.7503C39.11 13.6968 39.1051 13.645 39.1019 13.5931H39.11V2.59657Z" fill="#00A1D1"/>
<path d="M11.11 2.59332L9.8982 6.46674L9.8901 6.48618L8.98776 9.20616L7.67394 5.25174C7.45038 4.67016 7.13124 4.18092 6.72138 3.77592C5.94216 2.99022 5.00418 2.59656 3.90582 2.59656H0.208984L1.04976 6.39222H3.60936C3.68064 6.39222 3.8313 6.37926 3.94632 6.46836C4.06134 6.55746 4.1229 6.74214 4.1229 6.74376L6.66144 14.2525H6.66306C6.95628 15.265 7.88778 16.0053 8.99424 16.0053C10.0764 16.0053 10.9917 15.2974 11.306 14.3189L13.5772 7.54242L15.0271 2.59332H11.11Z" fill="#DC0079"/>
</g>
<defs>
<clipPath id="clip0_2486_16274">
<rect width="81" height="16.2" fill="white" transform="translate(0 0.799988)"/>
</clipPath>
</defs>
</svg>
